<svg xmlns="http://www.w3.org/2000/svg" xmlns:xlink="http://www.w3.org/1999/xlink" id="visual" viewBox="0 0 900 600"
     width="900" height="600" version="1.1">
    <g>
        <g transform="translate(376 19)">
            <path d="M64.6 -76.4C84.4 -60.4 101.6 -40.7 106.4 -18.1C111.1 4.5 103.5 29.9 89.2 48.6C75 67.4 54.1 79.5 30.9 90.3C7.6 101.2 -18.1 110.8 -41.7 105.9C-65.4 101.1 -86.9 81.9 -97.9 58.6C-108.9 35.3 -109.3 8 -103.7 -17.4C-98.1 -42.7 -86.6 -66.1 -68.3 -82.3C-50 -98.6 -25 -107.7 -1.3 -106.1C22.4 -104.6 44.8 -92.3 64.6 -76.4Z"
                  fill="#ffffff"/>
        </g>
        <g transform="translate(2 244)">
            <path d="M40.8 -49.5C51.3 -39.7 57.3 -25.4 59.6 -10.7C62 4 60.8 19.2 54.6 32.8C48.3 46.5 37 58.5 23.4 62.8C9.8 67.2 -6.1 63.8 -20 57.6C-33.9 51.4 -45.8 42.4 -51.9 30.6C-58 18.8 -58.3 4.2 -56.7 -10.9C-55.2 -26.1 -51.8 -41.9 -42 -51.8C-32.3 -61.7 -16.1 -65.7 -0.5 -65.1C15.1 -64.4 30.2 -59.2 40.8 -49.5Z"
                  fill="#ffffff"/>
        </g>
        <g transform="translate(267 438)">
            <path d="M32.7 -40.8C40.6 -32.3 44.1 -20.3 46.3 -8.1C48.5 4.1 49.5 16.6 44.4 25.7C39.3 34.8 28 40.5 17 42.7C6 45 -4.7 43.8 -14.4 40.1C-24.1 36.4 -32.7 30.1 -39.2 21.4C-45.8 12.7 -50.3 1.5 -48.3 -8.3C-46.3 -18.1 -37.9 -26.6 -28.7 -34.9C-19.6 -43.2 -9.8 -51.3 1.3 -52.8C12.4 -54.4 24.7 -49.3 32.7 -40.8Z"
                  fill="#ffffff"/>
        </g>
        <g transform="translate(763 368)">
            <path d="M36.6 -43.5C47.1 -34.9 55 -23 56.1 -10.8C57.1 1.4 51.4 13.9 44.9 26.6C38.4 39.4 31.1 52.4 20.4 56.6C9.6 60.8 -4.6 56.2 -17.9 50.7C-31.1 45.2 -43.5 38.7 -51.5 28.1C-59.5 17.6 -63.2 2.9 -59.9 -9.7C-56.6 -22.2 -46.4 -32.7 -35.3 -41.2C-24.2 -49.7 -12.1 -56.2 0.5 -56.8C13.1 -57.4 26.1 -52.1 36.6 -43.5Z"
                  fill="#ffffff"/>
        </g>
        <g transform="translate(810 93)">
            <path d="M24.5 -29.6C31.9 -23 38.2 -15.4 39.7 -7C41.2 1.4 37.9 10.7 33 18.7C28 26.8 21.3 33.5 13 37.2C4.6 40.9 -5.4 41.6 -14.8 39C-24.2 36.3 -33 30.2 -37.7 21.8C-42.4 13.5 -43 2.9 -41.6 -7.7C-40.1 -18.3 -36.6 -28.9 -29.3 -35.6C-22.1 -42.3 -11 -45.2 -1.2 -43.7C8.5 -42.2 17.1 -36.3 24.5 -29.6Z"
                  fill="#ffffff"/>
        </g>
    </g>
</svg>
