<?xml version="1.0" encoding="UTF-8"?>
<svg width="1934px" height="686px" viewBox="0 0 1934 686" version="1.1" xmlns="http://www.w3.org/2000/svg"
     xmlns:xlink="http://www.w3.org/1999/xlink">
    <defs>
        <polygon id="path-1" points="0.06 0.092 435.339 0.092 435.339 482.602 0.06 482.602"></polygon>
    </defs>
    <g id="01" stroke="none" stroke-width="1" fill="none" fill-rule="evenodd">
        <polyline id="Fill-1" fill="currentColor"
                  points="886.794 319.136 801.204 466.876 757.274 383.892 714.643 466.876 628.411 319.136 675.269 319.136 713.994 390.729 757.274 304.165 801.204 390.729 839.607 319.136 886.794 319.136"></polyline>
        <path d="M1042.01,371.853 C1033.34,352.766 1017.29,342.351 993.856,340.612 C968.687,342.351 951.331,352.766 941.786,371.853 L1042.01,371.853 Z M1074.56,430.43 C1066.75,440.844 1057.42,449.522 1046.57,456.465 C1035.72,463.403 1019.02,466.439 996.456,465.576 C964.132,466.439 940.486,458.634 925.518,442.143 C910.328,428.263 903.39,409.17 904.689,384.871 C902.516,367.516 910.112,350.163 927.469,332.803 C944.825,315.45 966.521,306.768 992.551,306.768 C1019.45,305.905 1041.37,314.797 1058.29,333.453 C1075.21,352.113 1083.67,373.593 1083.67,397.889 L943.086,397.889 C948.298,420.454 966.082,432.601 996.456,434.335 C1016.41,434.335 1031.16,427.826 1040.71,414.808 L1074.56,430.43 Z"
              id="Fill-2" fill="currentColor"></path>
        <path d="M1230.75,383.243 C1230.75,370.665 1226.9,360.139 1219.2,351.677 C1211.5,343.215 1201.36,338.987 1188.78,338.987 C1176.85,338.987 1167.24,343.434 1159.98,352.327 C1152.7,361.227 1149.08,371.748 1149.08,383.892 C1149.08,396.91 1152.66,407.65 1159.82,416.111 C1167.19,425.224 1177.17,429.779 1189.75,429.779 C1202.99,429.779 1213.29,425.224 1220.67,416.111 C1227.39,407.65 1230.75,396.696 1230.75,383.243 Z M1272.08,381.943 C1272.08,404.938 1265.47,424.573 1252.23,440.844 C1238.13,458.204 1219.8,466.876 1197.24,466.876 C1166.65,468.612 1145.28,461.237 1133.13,444.747 L1109.05,461.995 L1108.72,219.557 L1150.38,219.557 L1150.38,319.786 C1162.95,308.288 1177.71,302.537 1194.64,302.537 C1216.98,302.537 1235.48,310.136 1250.12,325.316 C1264.76,340.507 1272.08,359.38 1272.08,381.943 Z"
              id="Fill-3" fill="currentColor"></path>
        <path d="M1304.3,461.67 L1345.63,461.67 L1345.63,307.421 L1304.3,307.421 L1304.3,461.67 Z M1303,271.624 L1344.66,271.624 L1344.66,228.669 L1303,228.669 L1303,271.624 Z"
              id="Fill-4" fill="currentColor"></path>
        <path d="M1492.07,416.111 C1492.07,429.996 1486.43,441.931 1475.15,451.908 C1463.86,461.884 1449.11,466.439 1430.89,465.576 C1408.33,463.837 1390.54,457.765 1377.52,447.352 L1395.74,420.017 C1408.76,425.224 1421.78,429.021 1434.8,431.407 C1442.61,429.891 1447.81,426.309 1450.41,420.668 C1449.55,412.426 1443.8,406.242 1433.17,402.119 C1413.86,391.924 1403.12,385.957 1400.95,384.221 C1389.45,375.546 1383.7,365.239 1383.7,353.305 C1383.7,340.507 1388.8,329.767 1399,321.089 C1409.19,312.413 1420.8,308.071 1433.82,308.071 C1445.54,308.071 1455.4,310.894 1463.43,316.533 C1470.38,318.703 1476.88,322.825 1482.96,328.897 L1463.43,351.026 C1453.89,345.821 1443.36,343.215 1431.87,343.215 C1429.91,343.215 1428.01,344.029 1426.17,345.657 C1424.33,347.285 1423.41,349.185 1423.41,351.351 C1423.41,355.258 1429.37,359.705 1441.3,364.694 C1457.36,371.42 1468.31,377.058 1474.17,381.615 C1486.1,390.729 1492.07,402.23 1492.07,416.111"
              id="Fill-5" fill="currentColor"></path>
        <path d="M1642.74,387.799 C1642.74,375.87 1638.45,365.833 1629.88,357.696 C1621.31,349.562 1610.95,345.493 1598.8,345.493 C1586.65,345.493 1576.19,349.562 1567.4,357.696 C1558.62,365.833 1554.22,375.978 1554.22,388.124 C1554.22,399.628 1558.88,409.39 1568.22,417.412 C1576.89,425.224 1587.09,429.129 1598.8,429.129 C1610.52,429.129 1620.77,425.171 1629.55,417.251 C1638.34,409.334 1642.74,399.514 1642.74,387.799 Z M1684.06,387.799 C1684.06,410.364 1675.54,429.185 1658.52,444.261 C1641.49,459.343 1621.58,466.876 1598.8,466.876 C1576.45,466.876 1556.83,459.392 1539.9,444.422 C1522.33,428.802 1513.54,409.928 1513.54,387.799 C1513.54,364.806 1522.11,345.607 1539.25,330.201 C1555.74,315.45 1575.59,308.071 1598.8,308.071 C1622.01,308.071 1641.86,315.45 1658.35,330.201 C1675.49,345.607 1684.06,364.806 1684.06,387.799 Z"
              id="Fill-6" fill="currentColor"></path>
        <polyline id="Fill-7" fill="currentColor"
                  points="1748.82 461.67 1707.49 461.67 1707.49 222.16 1747.84 222.16 1748.82 461.67"></polyline>
        <polyline id="Fill-8" fill="currentColor"
                  points="1933.33 311.977 1848.72 466.876 1763.13 311.977 1810 311.977 1848.39 385.846 1886.47 311.977 1933.33 311.977"></polyline>
        <g id="Group-12" transform="translate(0.000000, 102.000000)">
            <mask id="mask-2" fill="white">
                <use xlink:href="#path-1"></use>
            </mask>
            <g id="Clip-10"></g>
            <polyline id="Fill-9" fill="#ed5b4a" mask="url(#mask-2)"
                      points="398.087 251.255 279.696 369.63 316.964 406.882 435.339 288.506 398.087 251.255"></polyline>
            <polyline id="Fill-11" fill="#ed5b4a" mask="url(#mask-2)"
                      points="241.263 0.092 0 241.339 241.263 482.602 278.515 445.334 74.52 241.339 278.515 37.344 241.263 0.092"></polyline>
        </g>
        <polyline id="Fill-13" fill="#ed5b4a"
                  points="455.134 296.175 492.402 333.443 571.072 254.789 316.964 0.681 279.696 37.932 496.536 254.789 455.134 296.175"></polyline>
        <polyline id="Fill-14" fill="#ed5b4a"
                  points="445.236 306.072 316.964 177.799 279.696 215.051 407.969 343.34 407.985 343.357 496.536 431.908 279.696 648.731 316.964 686 571.072 431.908 445.236 306.072"></polyline>
        <path d="M571.072,643.321 C571.072,619.751 551.964,600.643 528.394,600.643 C504.823,600.643 485.715,619.751 485.715,643.321 C485.715,666.892 504.823,686 528.394,686 C551.964,686 571.072,666.892 571.072,643.321"
              id="Fill-15" fill="#ed5b4a"></path>
    </g>
</svg>
